<?xml version="1.0" standalone="no"?>
<!DOCTYPE svg PUBLIC "-//W3C//DTD SVG 20010904//EN"
 "http://www.w3.org/TR/2001/REC-SVG-20010904/DTD/svg10.dtd">
<svg version="1.0" xmlns="http://www.w3.org/2000/svg"
 width="456.000000pt" height="456.000000pt" viewBox="0 0 456.000000 456.000000"
 preserveAspectRatio="xMidYMid meet">

<g transform="translate(0.000000,456.000000) scale(0.100000,-0.100000)"
fill="#000000" stroke="none">
<path d="M1591 3213 c-117 -127 -220 -248 -267 -318 -26 -39 -34 -60 -34 -95
1 -88 68 -182 156 -216 43 -16 138 -16 192 1 19 6 13 -10 -48 -113 -38 -66
-70 -123 -70 -126 0 -3 81 -6 180 -6 99 0 180 3 180 8 -1 4 -32 59 -69 122
-38 63 -68 117 -66 118 2 2 20 -1 40 -8 20 -7 65 -10 100 -8 119 7 213 97 223
212 5 62 -5 84 -77 176 -62 78 -322 360 -332 360 -4 0 -53 -48 -108 -107z"/>
<path d="M2545 3216 c-60 -28 -127 -99 -143 -154 -7 -22 -12 -62 -12 -89 0
-110 118 -273 327 -453 l116 -99 26 19 c63 44 203 174 266 246 133 153 177
248 157 342 -38 181 -239 269 -394 173 -41 -26 -56 -31 -68 -22 -86 64 -189
77 -275 37z"/>
<path d="M1539 1993 c-91 -115 -176 -222 -188 -240 l-24 -32 54 -68 c199 -253
286 -361 305 -381 l22 -23 53 68 c30 37 114 143 187 235 86 108 131 172 126
180 -7 11 -343 436 -364 461 -3 4 -81 -86 -171 -200z"/>
<path d="M2725 2179 c-91 -45 -141 -132 -132 -231 l5 -57 -47 -16 c-149 -49
-200 -245 -93 -358 64 -68 156 -84 268 -48 32 11 60 18 62 17 1 -2 -29 -57
-67 -122 l-70 -119 89 -3 c50 -1 130 -1 179 0 l89 3 -69 115 c-37 63 -68 119
-69 124 0 4 8 5 18 1 49 -20 123 -36 174 -36 171 -1 278 184 198 341 -32 63
-115 120 -175 120 -23 0 -25 3 -25 48 0 26 -5 63 -10 83 -13 48 -75 118 -124
140 -55 25 -149 24 -201 -2z"/>
</g>
</svg>
