<svg version="1.1" id="Layer_1" xmlns="http://www.w3.org/2000/svg" xmlns:xlink="http://www.w3.org/1999/xlink" x="0px" y="0px"
	 width="100%" viewBox="0 0 424 520" enable-background="new 0 0 424 520" xml:space="preserve">
<path fill="#006333" opacity="1.000000" stroke="none" 
	d="
M178.000000,521.000000 
	C118.682236,521.000000 59.864471,521.000000 1.023355,521.000000 
	C1.023355,347.728119 1.023355,174.456223 1.023355,1.092163 
	C142.234436,1.092163 283.468933,1.092163 424.851746,1.092163 
	C424.851746,174.333237 424.851746,347.666595 424.851746,521.000000 
	C342.789520,521.000000 260.644775,521.000000 178.000000,521.000000 
M315.990845,332.548767 
	C319.253906,337.760284 323.087219,342.709900 325.632690,348.251038 
	C328.670593,354.864044 333.159607,356.501343 340.075623,356.166962 
	C352.273651,355.577271 364.520691,356.001923 377.458130,356.001923 
	C376.145325,353.903503 375.305908,352.525238 374.431519,351.169556 
	C354.699768,320.577850 335.002350,289.963745 315.164337,259.441040 
	C313.377563,256.691925 313.300140,254.854446 315.157227,252.058289 
	C327.849182,232.948212 340.330963,213.698502 352.867126,194.485062 
	C358.916382,185.213760 364.936584,175.923492 371.388397,165.998062 
	C356.491302,165.998062 342.395996,166.138382 328.307037,165.901489 
	C324.687500,165.840637 322.752716,166.953140 320.883606,170.060684 
	C307.180511,192.843155 293.271454,215.501968 279.360260,238.158585 
	C278.469513,239.609329 277.094788,241.712036 275.815277,241.809723 
	C270.439941,242.220123 265.015198,241.983078 259.320557,241.983078 
	C259.320557,216.301208 259.320557,191.348007 259.320557,166.312866 
	C246.117493,166.312866 233.233383,166.312866 220.391617,166.312866 
	C220.391617,229.666382 220.391617,292.704559 220.391617,355.796814 
	C233.475021,355.796814 246.242996,355.796814 259.516144,355.796814 
	C259.516144,329.867920 259.516144,304.138458 259.516144,278.029053 
	C265.987000,278.029053 271.962433,278.185944 277.923462,277.960693 
	C280.764160,277.853333 282.383820,278.793823 283.878510,281.210907 
	C294.366821,298.171661 305.007111,315.038452 315.990845,332.548767 
M47.972340,324.500000 
	C47.972340,334.926544 47.972340,345.353058 47.972340,355.699707 
	C61.335880,355.699707 74.077278,355.699707 87.310074,355.699707 
	C87.310074,333.342468 87.310074,311.282898 87.310074,289.027435 
	C98.294426,289.027435 108.791290,289.291656 119.267776,288.943298 
	C127.557594,288.667603 135.942871,288.303528 144.076721,286.827118 
	C173.699509,281.450256 191.706314,261.096954 193.299545,231.932358 
	C194.713089,206.056992 181.651718,183.790329 158.847397,173.350967 
	C148.587189,168.654068 137.750336,166.142593 126.489372,166.071793 
	C101.161949,165.912567 75.832909,166.006287 50.504536,166.013855 
	C49.729103,166.014084 48.953728,166.200287 47.972340,166.326233 
	C47.972340,218.898254 47.972340,271.199127 47.972340,324.500000 
z"/>
<path fill="#FEFEFE" opacity="1.000000" stroke="none" 
	d="
M315.794800,332.242035 
	C305.007111,315.038452 294.366821,298.171661 283.878510,281.210907 
	C282.383820,278.793823 280.764160,277.853333 277.923462,277.960693 
	C271.962433,278.185944 265.987000,278.029053 259.516144,278.029053 
	C259.516144,304.138458 259.516144,329.867920 259.516144,355.796814 
	C246.242996,355.796814 233.475021,355.796814 220.391617,355.796814 
	C220.391617,292.704559 220.391617,229.666382 220.391617,166.312866 
	C233.233383,166.312866 246.117493,166.312866 259.320557,166.312866 
	C259.320557,191.348007 259.320557,216.301208 259.320557,241.983078 
	C265.015198,241.983078 270.439941,242.220123 275.815277,241.809723 
	C277.094788,241.712036 278.469513,239.609329 279.360260,238.158585 
	C293.271454,215.501968 307.180511,192.843155 320.883606,170.060684 
	C322.752716,166.953140 324.687500,165.840637 328.307037,165.901489 
	C342.395996,166.138382 356.491302,165.998062 371.388397,165.998062 
	C364.936584,175.923492 358.916382,185.213760 352.867126,194.485062 
	C340.330963,213.698502 327.849182,232.948212 315.157227,252.058289 
	C313.300140,254.854446 313.377563,256.691925 315.164337,259.441040 
	C335.002350,289.963745 354.699768,320.577850 374.431519,351.169556 
	C375.305908,352.525238 376.145325,353.903503 377.458130,356.001923 
	C364.520691,356.001923 352.273651,355.577271 340.075623,356.166962 
	C333.159607,356.501343 328.670593,354.864044 325.632690,348.251038 
	C323.087219,342.709900 319.253906,337.760284 315.794800,332.242035 
z"/>
<path fill="#FEFFFF" opacity="1.000000" stroke="none" 
	d="
M47.972340,324.000000 
	C47.972340,271.199127 47.972340,218.898254 47.972340,166.326233 
	C48.953728,166.200287 49.729103,166.014084 50.504536,166.013855 
	C75.832909,166.006287 101.161949,165.912567 126.489372,166.071793 
	C137.750336,166.142593 148.587189,168.654068 158.847397,173.350967 
	C181.651718,183.790329 194.713089,206.056992 193.299545,231.932358 
	C191.706314,261.096954 173.699509,281.450256 144.076721,286.827118 
	C135.942871,288.303528 127.557594,288.667603 119.267776,288.943298 
	C108.791290,289.291656 98.294426,289.027435 87.310074,289.027435 
	C87.310074,311.282898 87.310074,333.342468 87.310074,355.699707 
	C74.077278,355.699707 61.335880,355.699707 47.972340,355.699707 
	C47.972340,345.353058 47.972340,334.926544 47.972340,324.000000 
M152.932236,237.057144 
	C153.176636,235.243271 153.477814,233.434967 153.656540,231.614655 
	C155.232132,215.569000 145.627060,200.707367 130.726318,199.263962 
	C116.453796,197.881439 101.942337,198.965500 87.299820,198.965500 
	C87.299820,217.882172 87.299820,237.252579 87.299820,256.760101 
	C100.657669,256.760101 113.793297,257.280701 126.867683,256.609039 
	C139.154663,255.977768 149.020416,250.863693 152.932236,237.057144 
z"/>
<path fill="#016435" opacity="1.000000" stroke="none" 
	d="
M152.835556,237.455963 
	C149.020416,250.863693 139.154663,255.977768 126.867683,256.609039 
	C113.793297,257.280701 100.657669,256.760101 87.299820,256.760101 
	C87.299820,237.252579 87.299820,217.882172 87.299820,198.965500 
	C101.942337,198.965500 116.453796,197.881439 130.726318,199.263962 
	C145.627060,200.707367 155.232132,215.569000 153.656540,231.614655 
	C153.477814,233.434967 153.176636,235.243271 152.835556,237.455963 
z"/>
</svg>